<svg width="12" height="7" viewBox="0 0 12 7" fill="none" xmlns="http://www.w3.org/2000/svg">
<path fill-rule="evenodd" clip-rule="evenodd" d="M6.58914 6.58917C6.43286 6.74539 6.22094 6.83316 5.99997 6.83316C5.779 6.83316 5.56708 6.74539 5.4108 6.58917L0.696638 1.875C0.617046 1.79813 0.55356 1.70617 0.509886 1.6045C0.466212 1.50283 0.443224 1.39348 0.442263 1.28283C0.441301 1.17219 0.462386 1.06245 0.504287 0.960039C0.546187 0.857625 0.608066 0.764582 0.68631 0.686338C0.764553 0.608094 0.857595 0.546216 0.96001 0.504316C1.06242 0.462415 1.17216 0.44133 1.28281 0.442292C1.39346 0.443253 1.50281 0.466242 1.60448 0.509916C1.70615 0.55359 1.7981 0.617075 1.87497 0.696667L5.99997 4.82167L10.125 0.696667C10.2821 0.544869 10.4926 0.460874 10.7111 0.462772C10.9296 0.464671 11.1386 0.552312 11.2932 0.706818C11.4477 0.861325 11.5353 1.07034 11.5372 1.28883C11.5391 1.50733 11.4551 1.71783 11.3033 1.875L6.58914 6.58917Z" fill="black" fill-opacity="1"/>
</svg>
