<svg width="12" height="7" viewBox="0 0 12 7" fill="none" xmlns="http://www.w3.org/2000/svg">
<path fill-rule="evenodd" clip-rule="evenodd" d="M6.58914 0.410833C6.43286 0.254607 6.22094 0.166844 5.99997 0.166844C5.779 0.166844 5.56708 0.254607 5.4108 0.410833L0.696638 5.125C0.617046 5.20187 0.55356 5.29383 0.509886 5.3955C0.466212 5.49717 0.443224 5.60652 0.442263 5.71717C0.441301 5.82781 0.462386 5.93755 0.504287 6.03996C0.546187 6.14237 0.608066 6.23542 0.68631 6.31366C0.764553 6.39191 0.857595 6.45378 0.96001 6.49568C1.06242 6.53759 1.17216 6.55867 1.28281 6.55771C1.39346 6.55675 1.50281 6.53376 1.60448 6.49008C1.70615 6.44641 1.7981 6.38292 1.87497 6.30333L5.99997 2.17833L10.125 6.30333C10.2821 6.45513 10.4926 6.53913 10.7111 6.53723C10.9296 6.53533 11.1386 6.44769 11.2932 6.29318C11.4477 6.13867 11.5353 5.92966 11.5372 5.71117C11.5391 5.49267 11.4551 5.28217 11.3033 5.125L6.58914 0.410833Z" fill="white"/>
</svg>
