<svg width="22" height="23" viewBox="0 0 22 23" fill="none" xmlns="http://www.w3.org/2000/svg">
<path d="M18.298 0.500005C17.8118 0.499221 17.3301 0.594581 16.8808 0.780601C16.4315 0.966621 16.0234 1.23963 15.68 1.58393L13.0629 4.20193L12.4807 3.61977C12.4045 3.54315 12.3138 3.48235 12.214 3.44086C12.1142 3.39937 12.0071 3.37801 11.899 3.37801C11.7909 3.37801 11.6839 3.39937 11.584 3.44086C11.4842 3.48235 11.3935 3.54315 11.3173 3.61977L9.57166 5.36539C9.49503 5.44165 9.43423 5.53231 9.39274 5.63214C9.35125 5.73197 9.3299 5.83901 9.3299 5.94712C9.3299 6.05523 9.35125 6.16227 9.39274 6.2621C9.43423 6.36194 9.49503 6.45259 9.57166 6.52885L10.1276 7.08393L4.31027 12.9012C3.40404 13.8066 2.89296 14.4793 2.56466 15.0699C2.2372 15.6597 2.13481 16.1869 2.06204 16.5507C1.98927 16.9145 1.93596 17.1371 1.7185 17.5289C1.50104 17.9206 1.07712 18.4613 0.237734 19.3007C0.156233 19.3796 0.0914265 19.4741 0.0471681 19.5785C0.00290968 19.683 -0.0198975 19.7952 -0.0198975 19.9087C-0.0198975 20.0221 0.00290968 20.1344 0.0471681 20.2388C0.0914265 20.3432 0.156233 20.4377 0.237734 20.5166L1.98335 22.2622C2.06224 22.3437 2.15672 22.4085 2.26116 22.4528C2.3656 22.4971 2.47788 22.5199 2.59131 22.5199C2.70474 22.5199 2.81702 22.4971 2.92146 22.4528C3.0259 22.4085 3.12038 22.3437 3.19927 22.2622C4.03866 21.4229 4.57935 20.9989 4.97112 20.7815C5.36289 20.564 5.58627 20.5107 5.94927 20.4371C6.31312 20.3652 6.84027 20.2628 7.43004 19.9353C8.02066 19.607 8.6925 19.0959 9.59873 18.1897C10.6581 17.132 14.6207 13.1678 15.416 12.3724L15.9711 12.9275C16.2927 13.249 16.813 13.249 17.1346 12.9275L18.8802 11.1827C18.9568 11.1064 19.0176 11.0158 19.0591 10.9159C19.1006 10.8161 19.122 10.7091 19.122 10.601C19.122 10.4929 19.1006 10.3858 19.0591 10.286C19.0176 10.1862 18.9568 10.0955 18.8802 10.0192L18.298 9.43708L20.916 6.81993C21.4339 6.3022 21.7866 5.64252 21.9295 4.92433C22.0724 4.20613 21.9991 3.46169 21.7188 2.78517C21.4386 2.10865 20.964 1.53043 20.3551 1.12367C19.7462 0.716908 19.0303 0.499868 18.298 0.500005ZM11.3173 8.32693L14.173 11.1827L8.38196 16.9738C7.54258 17.8132 6.97566 18.2371 6.58389 18.4545C6.19296 18.672 5.99581 18.7253 5.63196 18.7981C5.26812 18.8709 4.74181 18.9724 4.1512 19.3007C3.74504 19.5266 3.17981 20.0157 2.6442 20.4904L2.00958 19.8558C2.48343 19.3202 2.97335 18.7558 3.19927 18.3488C3.52758 17.7582 3.62912 17.2319 3.70189 16.868C3.77466 16.5042 3.82881 16.2808 4.04543 15.889C4.26289 15.4981 4.68681 14.9574 5.5262 14.118L11.3173 8.32693Z" fill="black" fill-opacity="1"/>
</svg>
