<svg width="17" height="17" viewBox="0 0 17 17" fill="none" xmlns="http://www.w3.org/2000/svg">
<g clip-path="url(#clip0_597_1383)">
<path d="M14.6667 12.8333H16.5V11H14.6667M14.6667 16.5H16.5V14.6667H14.6667M9.16667 0H7.33333V7.33333H0V9.16667H7.33333V16.5H9.16667V9.16667H16.5V7.33333H9.16667M11 16.5H12.8333V14.6667H11M14.6667 1.83333H16.5V0H14.6667M14.6667 5.5H16.5V3.66667H14.6667M12.8333 0H11V1.83333H12.8333M1.83333 0H0V1.83333H1.83333M5.5 0H3.66667V1.83333H5.5M0 12.8333H1.83333V11H0M1.83333 3.66667H0V5.5H1.83333M3.66667 16.5H5.5V14.6667H3.66667M0 16.5H1.83333V14.6667H0V16.5Z" fill="black" fill-opacity="1"/>
</g>
<defs>
<clipPath id="clip0_597_1383">
<rect width="16.5" height="16.5" rx="1" fill="white"/>
</clipPath>
</defs>
</svg>
