<svg width="20" height="15" viewBox="0 0 20 15" fill="none" xmlns="http://www.w3.org/2000/svg">
<path d="M14.3817 3.11832C14.5119 3.24666 14.5834 3.42174 14.5834 3.60416V5.89582C14.5834 6.07816 14.5109 6.25303 14.382 6.38196C14.2531 6.51089 14.0782 6.58332 13.8959 6.58332C13.7135 6.58332 13.5387 6.51089 13.4097 6.38196C13.2808 6.25303 13.2084 6.07816 13.2084 5.89582V5.26332L11.6317 6.83999C11.5683 6.90562 11.4924 6.95796 11.4085 6.99395C11.3246 7.02994 11.2344 7.04887 11.1431 7.04962C11.0518 7.05037 10.9613 7.03293 10.8768 6.99832C10.7923 6.96371 10.7156 6.91263 10.6511 6.84805C10.5865 6.78346 10.5355 6.70668 10.501 6.62217C10.4665 6.53767 10.4491 6.44713 10.45 6.35584C10.4508 6.26456 10.4698 6.17435 10.5059 6.09049C10.5419 6.00663 10.5943 5.9308 10.66 5.86741L12.2367 4.29166H11.6042C11.4219 4.29166 11.247 4.21922 11.1181 4.09029C10.9891 3.96136 10.9167 3.78649 10.9167 3.60416C10.9167 3.42182 10.9891 3.24695 11.1181 3.11802C11.247 2.98909 11.4219 2.91666 11.6042 2.91666H13.8959C14.0781 2.91682 14.2529 2.98935 14.3817 3.11832ZM5.41671 11.3958C5.41671 11.5782 5.48914 11.753 5.61807 11.882C5.747 12.0109 5.92187 12.0833 6.10421 12.0833H8.39679C8.57913 12.0833 8.754 12.0109 8.88293 11.882C9.01186 11.753 9.08429 11.5782 9.08429 11.3958C9.08429 11.2135 9.01186 11.0386 8.88293 10.9097C8.754 10.7808 8.57913 10.7083 8.39679 10.7083H7.76429L9.34096 9.13166C9.46613 9.00193 9.53535 8.82824 9.5337 8.64798C9.53205 8.46772 9.45966 8.29532 9.33213 8.16791C9.2046 8.0405 9.03213 7.96828 8.85187 7.9668C8.67161 7.96531 8.49798 8.03469 8.36837 8.15999L6.79171 9.73482V9.10232C6.79171 8.91999 6.71927 8.74512 6.59034 8.61619C6.46141 8.48726 6.28654 8.41482 6.10421 8.41482C5.92187 8.41482 5.747 8.48726 5.61807 8.61619C5.48914 8.74512 5.41671 8.91999 5.41671 9.10232V11.3958ZM0.833374 2.68749C0.833374 2.01892 1.09896 1.37774 1.57171 0.904991C2.04446 0.432243 2.68564 0.166656 3.35421 0.166656H16.6459C17.3144 0.166656 17.9556 0.432243 18.4284 0.904991C18.9011 1.37774 19.1667 2.01892 19.1667 2.68749V12.3125C19.1667 12.6435 19.1015 12.9713 18.9748 13.2772C18.8481 13.583 18.6625 13.8609 18.4284 14.095C18.1943 14.3291 17.9164 14.5148 17.6106 14.6414C17.3047 14.7681 16.9769 14.8333 16.6459 14.8333H3.35421C3.02317 14.8333 2.69537 14.7681 2.38953 14.6414C2.08368 14.5148 1.80579 14.3291 1.57171 14.095C1.33763 13.8609 1.15194 13.583 1.02526 13.2772C0.898577 12.9713 0.833374 12.6435 0.833374 12.3125V2.68749ZM3.35421 1.54166C2.72171 1.54166 2.20837 2.05499 2.20837 2.68749V12.3125C2.20837 12.945 2.72171 13.4583 3.35421 13.4583H16.6459C17.2784 13.4583 17.7917 12.945 17.7917 12.3125V2.68749C17.7917 2.05499 17.2784 1.54166 16.6459 1.54166H3.35421Z" fill="black" fill-opacity="0.5"/>
</svg>
