<svg width="18" height="17" viewBox="0 0 18 17" fill="none" xmlns="http://www.w3.org/2000/svg">
<path d="M0.75 3C0.75 2.51377 0.943154 2.04745 1.28697 1.70363C1.63079 1.35982 2.0971 1.16666 2.58333 1.16666H4.18292C4.62918 1.16686 5.06005 1.32982 5.39475 1.625L7.47742 3.45833C7.81211 3.75351 8.24299 3.91647 8.68925 3.91666H15.4167C15.9029 3.91666 16.3692 4.10982 16.713 4.45364C17.0568 4.79745 17.25 5.26377 17.25 5.75V14C17.25 14.4862 17.0568 14.9525 16.713 15.2964C16.3692 15.6402 15.9029 15.8333 15.4167 15.8333H2.58333C2.0971 15.8333 1.63079 15.6402 1.28697 15.2964C0.943154 14.9525 0.75 14.4862 0.75 14V3Z" stroke="black" stroke-opacity="1" stroke-width="1.375" stroke-linecap="round" stroke-linejoin="round"/>
</svg>
