<svg width="20" height="21" viewBox="0 0 20 21" fill="none" xmlns="http://www.w3.org/2000/svg">
<path d="M19.75 16.875C19.75 17.7701 19.3944 18.6285 18.7615 19.2615C18.1285 19.8944 17.2701 20.25 16.375 20.25H3.625C2.72989 20.25 1.87145 19.8944 1.23851 19.2615C0.605579 18.6285 0.25 17.7701 0.25 16.875V4.125C0.25 3.22989 0.605579 2.37145 1.23851 1.73851C1.87145 1.10558 2.72989 0.75 3.625 0.75H16.375C17.2701 0.75 18.1285 1.10558 18.7615 1.73851C19.3944 2.37145 19.75 3.22989 19.75 4.125V16.875ZM16.375 1.5H3.625C2.92881 1.5 2.26113 1.77656 1.76884 2.26884C1.27656 2.76113 1 3.42881 1 4.125V6H19V4.125C19 3.42881 18.7234 2.76113 18.2312 2.26884C17.7389 1.77656 17.0712 1.5 16.375 1.5ZM1 10.7197L4.96975 6.75H1V10.7197ZM1 11.7803V13.5H3.46975L10.2197 6.75H6.03025L1 11.7803ZM11.2803 6.75L4.53025 13.5H8.71975L15.4697 6.75H11.2803ZM16.5303 6.75L9.78025 13.5H13.9697L19 8.46975V6.75H16.5303ZM19 9.53025L15.0303 13.5H19V9.53025Z" fill="black" fill-opacity="0.5"/>
</svg>
