<svg width="20" height="19" viewBox="0 0 20 19" fill="none" xmlns="http://www.w3.org/2000/svg">
<path d="M19.1667 1.33334C19.1667 0.781059 18.719 0.333344 18.1667 0.333344H1.83338C1.28109 0.333344 0.833374 0.781059 0.833374 1.33334V4.83334C0.833374 5.38563 1.28109 5.83334 1.83337 5.83334H18.1667C18.719 5.83334 19.1667 5.38563 19.1667 4.83334V1.33334ZM19.1667 8.66668C19.1667 8.11439 18.719 7.66668 18.1667 7.66668H10.0834C9.53109 7.66668 9.08337 8.11439 9.08337 8.66668V17.6667C9.08337 18.219 9.53109 18.6667 10.0834 18.6667H18.1667C18.719 18.6667 19.1667 18.219 19.1667 17.6667V8.66668ZM6.25004 18.6667C6.80233 18.6667 7.25004 18.219 7.25004 17.6667V8.66668C7.25004 8.11439 6.80233 7.66668 6.25004 7.66668H1.83337C1.28109 7.66668 0.833374 8.11439 0.833374 8.66668V17.6667C0.833374 18.219 1.28109 18.6667 1.83337 18.6667H6.25004Z" fill="black" fill-opacity="1"/>
</svg>
